<svg height="512" viewBox="0 0 64 64" width="512" xmlns="http://www.w3.org/2000/svg"><g id="Online_Education-Lesson-Browser-Online_Learning-Education" data-name="Online Education-Lesson-Browser-Online Learning-Education"><path d="m53 10.96v46.04a4 4 0 0 1 -4 4h-42a4 4 0 0 1 -4-4v-46.04z" fill="#5aaae7"/><path d="m53 49v8h-19l-4-1.78-5-2.22 5-2.22 4-1.78z" fill="#3d9ae2"/><path d="m61 47v8h-6v-4-4z" fill="#d1d3d4"/><path d="m34 51h21v4h-21z" fill="#00b39d"/><path d="m34 47h21v4h-21z" fill="#00ccb3"/><path d="m53 7v3.96h-50v-3.96a4 4 0 0 1 4-4h42a4 4 0 0 1 4 4z" fill="#ff5023"/><path d="m9 17h38v12h-38z" fill="#ffde55"/><path d="m34 51v4l-4-1.78v-4.44l4-1.78z" fill="#c6c5ca"/><path d="m30 48.78v4.44l-5-2.22z" fill="#898890"/><path d="m29 42h24v3h-24z" fill="#3d9ae2"/><path d="m29 35h32v8h-32z" fill="#ff9811"/><path d="m61 34h-32a1 1 0 0 0 -1 1v8a1 1 0 0 0 1 1h32a1 1 0 0 0 1-1v-8a1 1 0 0 0 -1-1zm-1 8h-2v-4h-2v4h-2v-2h-2v2h-2v-2h-2v2h-2v-4h-2v4h-2v-2h-2v2h-2v-2h-2v2h-2v-4h-2v4h-2v-6h30z"/><path d="m61 46h-27a.978.978 0 0 0 -.41.09l-9 4a1 1 0 0 0 0 1.82l9 4a.978.978 0 0 0 .41.09h27a1 1 0 0 0 1-1v-8a1 1 0 0 0 -1-1zm-32 5.68-1.54-.68 1.54-.68zm4 1.78-2-.89v-3.14l2-.89zm21 .54h-19v-2h19zm0-4h-19v-2h19zm6 4h-4v-6h4z"/><path d="m49 60h-42a3 3 0 0 1 -3-3v-45.04h48v20.04h2v-25a5.006 5.006 0 0 0 -5-5h-42a5.006 5.006 0 0 0 -5 5v50a5.006 5.006 0 0 0 5 5h42a5 5 0 0 0 4.842-3.751l-1.936-.5a3 3 0 0 1 -2.906 2.251zm-42-56h42a3 3 0 0 1 3 3v2.96h-48v-2.96a3 3 0 0 1 3-3z"/><path d="m8 6h2v2h-2z"/><path d="m12 6h2v2h-2z"/><path d="m16 6h2v2h-2z"/><path d="m48 29v-12a1 1 0 0 0 -1-1h-38a1 1 0 0 0 -1 1v12a1 1 0 0 0 1 1h38a1 1 0 0 0 1-1zm-2-1h-36v-10h36z"/><path d="m8 34h14v2h-14z"/><path d="m8 38h14v2h-14z"/><path d="m8 42h14v2h-14z"/><path d="m8 46h14v2h-14z"/><path d="m8 50h12v2h-12z"/><path d="m8 54h14v2h-14z"/></g></svg>