<svg xmlns="http://www.w3.org/2000/svg" version="1.1" xmlns:xlink="http://www.w3.org/1999/xlink" xmlns:svgjs="http://svgjs.dev/svgjs" width="1440" height="560" preserveAspectRatio="none" viewBox="0 0 1440 560"><g mask="url(&quot;#SvgjsMask1049&quot;)" fill="none"><rect width="1440" height="560" x="0" y="0" fill="url(&quot;#SvgjsLinearGradient1050&quot;)"></rect><path d="M0 0L232.66 0L0 246.32z" fill="rgba(255, 255, 255, .1)"></path><path d="M0 246.32L232.66 0L573.88 0L0 274.96z" fill="rgba(255, 255, 255, .075)"></path><path d="M0 274.96L573.88 0L983.36 0L0 315.89z" fill="rgba(255, 255, 255, .05)"></path><path d="M0 315.89L983.36 0L1038.24 0L0 434.09999999999997z" fill="rgba(255, 255, 255, .025)"></path><path d="M1440 560L967.29 560L1440 512.78z" fill="rgba(0, 0, 0, .1)"></path><path d="M1440 512.78L967.29 560L436.02 560L1440 344.22999999999996z" fill="rgba(0, 0, 0, .075)"></path><path d="M1440 344.23L436.02 560L256.18999999999994 560L1440 145.3z" fill="rgba(0, 0, 0, .05)"></path><path d="M1440 145.29999999999995L256.19000000000005 560L166.08000000000004 560L1440 108.61999999999995z" fill="rgba(0, 0, 0, .025)"></path></g><defs><mask id="SvgjsMask1049"><rect width="1440" height="560" fill="#ffffff"></rect></mask><linearGradient x1="0%" y1="50%" x2="100%" y2="50%" gradientUnits="userSpaceOnUse" id="SvgjsLinearGradient1050"><stop stop-color="#0e2a47" offset="0"></stop><stop stop-color="#00459e" offset="1"></stop></linearGradient></defs></svg>